<svg fill="none" height="24" viewBox="0 0 24 24" width="24" xmlns="http://www.w3.org/2000/svg" xmlns:xlink="http://www.w3.org/1999/xlink"><linearGradient id="paint0_linear_1751_12779" gradientUnits="userSpaceOnUse" x1="12" x2="16.5" y1="1" y2="23"><stop offset="0" stop-color="#00f39f"/><stop offset="1" stop-color="#07c692"/></linearGradient><path clip-rule="evenodd" d="m12 3c-4.97056 0-9 4.02944-9 9 0 4.9706 4.02944 9 9 9 4.9706 0 9-4.0294 9-9 0-4.97056-4.0294-9-9-9zm-11 9c0-6.07513 4.92487-11 11-11 6.0751 0 11 4.92487 11 11 0 6.0751-4.9249 11-11 11-6.07513 0-11-4.9249-11-11zm14.4243-4.99716.0757.99713c-.0757-.99713-.0758-.99712-.076-.99711l-.0003.00003-.0011.00008-.0034.00026-.0113.00089-.0406.00335c-.0349.00293-.085.0073-.1486.01324-.127.01186-.3081.03002-.5283.05552-.4393.05085-1.0407.13162-1.684.25128-.6391.1189-1.3424.28037-1.977.49787-.6037.20691-1.27577.50675-1.73654.96751-.75695.75696-1.17157 1.71251-1.17157 2.70711 0 .6733.19003 1.3288.54765 1.9168l-1.37605 1.3761c-.39052.3905-.39052 1.0237 0 1.4142.39053.3905 1.02369.3905 1.41422 0l1.37609-1.3761c.588.3577 1.2435.5477 1.9168.5477.9946 0 1.9502-.4146 2.7071-1.1716.4608-.4608.7606-1.1328.9675-1.7365.2175-.6346.379-1.338.4979-1.9771.1196-.64319.2004-1.24467.2512-1.68391.0255-.22027.0437-.40133.0556-.52835.0059-.06355.0103-.11368.0132-.14854l.0033-.04065.0009-.01132.0003-.00334.0001-.00109v-.00039c0-.00015 0-.00029-.9971-.07594l.9971.07565c.0221-.29072-.0838-.5766-.29-.78276-.2062-.20617-.492-.31208-.7828-.29002zm-4.7116 5.79566c.4131.4105.8696.5802 1.2873.5802.4196 0 .8783-.1712 1.2929-.5858.125-.125.3056-.4334.4898-.9707.1736-.5065.3139-1.105.4235-1.6944.0653-.35095.1182-.69055.1604-.9944-.3039.04215-.6435.09509-.9944.16038-.5895.10966-1.1879.24997-1.6944.42356-.5374.18419-.8457.36476-.9707.48976-.4146.4146-.5858.8733-.5858 1.2929 0 .4177.1696.8741.5802 1.2873.0019.0018.0037.0037.0056.0056.0019.0018.0037.0037.0056.0056z" fill="url(#paint0_linear_1751_12779)" fill-rule="evenodd"/></svg>